<svg xmlns="http://www.w3.org/2000/svg" viewBox="0 0 220.7 220.7"><defs><linearGradient id="a" x1="18.8" y1="18.8" x2="201.9" y2="201.9" gradientUnits="userSpaceOnUse"><stop offset="0" stop-color="#8300aa"/><stop offset="1" stop-color="#4b0055"/></linearGradient></defs><rect width="220.7" height="220.7" rx="64" fill="url(#a)"/><path d="M96.9 183.8H69.4a33.1 33.1 0 01-10.3-1.3 18.7 18.7 0 01-8.1-5.4 47.9 47.9 0 01-5.8-8.3 128.1 128.1 0 01-10.7-26.2 107.9 107.9 0 01-3.4-27.5 90.1 90.1 0 015.4-31.9 68.2 68.2 0 0141.3-40.9 93.1 93.1 0 0132.5-5.5 96.2 96.2 0 0132.4 5.3A67.7 67.7 0 01168.1 58a69.2 69.2 0 0116 25.4 95.5 95.5 0 015.5 33.2 83 83 0 01-4.2 27.4 61.3 61.3 0 01-10.6 19.7 51.1 51.1 0 01-13.9 11.6 30.6 30.6 0 01-14 4.1 17.2 17.2 0 01-13-5.6 18.8 18.8 0 01-3.3-21.5 21 21 0 015.6-6.6l.3-.2a110.9 110.9 0 0012.2-8.6 25.7 25.7 0 005.9-8.4c1.7-3.5 2.5-8.2 2.5-14a40.1 40.1 0 00-3-16 32.9 32.9 0 00-8.8-11.8 41.9 41.9 0 00-14.4-7.6 64.9 64.9 0 00-19.8-2.8c-15.5 0-27.5 3.5-35.6 10.4s-11.8 16.2-11.8 28.6a61.7 61.7 0 002.4 17.5 90.4 90.4 0 005.8 14.4h15.2v-17.5c0-6.5 1-11.3 3.2-14.9s5.3-6.6 12.6-6.6a15.4 15.4 0 0111.7 5.2c2.9 3.2 4.4 7.5 4.4 12.8v32.9a44.2 44.2 0 01-1.3 11.6 16.4 16.4 0 01-6.7 9.6 24 24 0 01-14.1 3.5z" fill="#fff"/></svg>