<svg xmlns="http://www.w3.org/2000/svg" viewBox="0 0 1633.9 193.3"><path d="M632.8,39.4c12.9,0,24,2.7,33.3,7.9a51.3,51.3,0,0,1,21.1,22.4c4.8,9.7,7.2,21.1,7.2,34.1a83,83,0,0,1-4,26.3,57.3,57.3,0,0,1-11.7,20.6A51.7,51.7,0,0,1,659.4,164a70.7,70.7,0,0,1-26.1,4.6,68.5,68.5,0,0,1-26.3-4.8,52.1,52.1,0,0,1-19.3-13.3A55.3,55.3,0,0,1,576,129.8a84.9,84.9,0,0,1-4-26.1,79.4,79.4,0,0,1,4.2-26.4,55.4,55.4,0,0,1,11.9-20.5,52.9,52.9,0,0,1,19.1-12.9A68.4,68.4,0,0,1,632.8,39.4Zm35.9,64.3c0-9.2-1.5-17.1-4.4-23.8s-7.2-11.8-12.7-15.2a34.7,34.7,0,0,0-18.8-5.2,33.7,33.7,0,0,0-14,2.9,31.2,31.2,0,0,0-11.1,8.3,38.2,38.2,0,0,0-7.3,13.9,62.9,62.9,0,0,0-2.7,19.1,63.6,63.6,0,0,0,2.7,19.2,39.6,39.6,0,0,0,7.5,14.3,31.8,31.8,0,0,0,11.3,8.5,35.5,35.5,0,0,0,31.8-2.1q8.1-4.8,12.9-15C667.1,121.9,668.7,113.5,668.7,103.7Z"/><path d="M785.3,54.6l48.6,73.6V53.9c0-4.8,1.1-8.4,3.1-10.8a10.4,10.4,0,0,1,8.4-3.7,10.5,10.5,0,0,1,8.6,3.7c2.1,2.4,3.2,6,3.2,10.8v98.2c0,11-4.6,16.5-13.6,16.5a19.6,19.6,0,0,1-6.2-1,17,17,0,0,1-5.1-3.1,26.7,26.7,0,0,1-4.4-5l-4.1-5.8L776.3,80.9v73.2q0,7.2-3.3,10.8a11.7,11.7,0,0,1-17.1,0c-2.2-2.5-3.2-6.1-3.2-10.8V57.7a27.7,27.7,0,0,1,1.3-9.6,15.2,15.2,0,0,1,13.5-8.7,14.3,14.3,0,0,1,5.8,1.1,16.6,16.6,0,0,1,4.3,3,29.7,29.7,0,0,1,3.7,4.9Z"/><path d="M1003.5,61.1h-57V91.7H999c3.8,0,6.7.9,8.6,2.6a9.1,9.1,0,0,1,2.9,6.9,9.4,9.4,0,0,1-2.8,6.9q-2.9,2.7-8.7,2.7H946.5v35.5h58.9c4,0,7,1,9,2.8a9.4,9.4,0,0,1,3.1,7.4,9.2,9.2,0,0,1-3.1,7.2q-3,2.7-9,2.7H936.7c-5.5,0-9.5-1.2-11.9-3.6s-3.6-6.4-3.6-11.9V57.1a20.5,20.5,0,0,1,1.6-8.9,10.5,10.5,0,0,1,5.1-5.1,22.1,22.1,0,0,1,8.8-1.5h66.8c4,0,7,.9,9,2.6a9.4,9.4,0,0,1,2.9,7.1,9.4,9.4,0,0,1-2.9,7.1Q1009.5,61.1,1003.5,61.1Z"/><path d="M1126,166.4h-38.1c-5.6,0-9.5-1.2-11.8-3.7s-3.6-6.4-3.6-11.8V57.1c0-5.5,1.2-9.5,3.6-11.9s6.4-3.6,11.8-3.6h40.4a87.3,87.3,0,0,1,15.5,1.1,32.6,32.6,0,0,1,11.8,4.2,33,33,0,0,1,7.8,6.7,29,29,0,0,1,5.2,9,29.4,29.4,0,0,1,1.8,10.3c0,12.5-6.2,21.6-18.7,27.4,16.4,5.3,24.6,15.4,24.6,30.5a34.2,34.2,0,0,1-5.4,18.9,32.4,32.4,0,0,1-14.5,12.4,53.3,53.3,0,0,1-13.1,3.4A144.9,144.9,0,0,1,1126,166.4ZM1097.8,60.6V92.8H1121c6.3,0,11.2-.6,14.6-1.7a14,14,0,0,0,7.9-6.9,15.2,15.2,0,0,0,2.1-8c0-6.3-2.2-10.5-6.7-12.5s-11.4-3.1-20.6-3.1Zm26.3,50.4h-26.3v36.4H1125c17.1,0,25.6-6.1,25.6-18.4q0-9.4-6.6-13.8C1139.6,112.4,1132.9,111,1124.1,111Z"/><path d="M1316.5,61.1h-57V91.7h52.4c3.9,0,6.8.9,8.7,2.6a9.9,9.9,0,0,1,0,13.8q-2.7,2.7-8.7,2.7h-52.4v35.5h58.9c4,0,7,1,9,2.8a9.6,9.6,0,0,1,3,7.4,9.5,9.5,0,0,1-3,7.2q-3,2.7-9,2.7h-68.7c-5.5,0-9.5-1.2-11.9-3.6s-3.6-6.4-3.6-11.9V57.1a20.5,20.5,0,0,1,1.6-8.9,10.5,10.5,0,0,1,5.1-5.1,22.1,22.1,0,0,1,8.8-1.5h66.8c4,0,7,.9,8.9,2.6a9.1,9.1,0,0,1,3,7.1,9.1,9.1,0,0,1-3,7.1C1323.5,60.2,1320.5,61.1,1316.5,61.1Z"/><path d="M1410.6,54.8v90.9h51.3c4.1,0,7.2.9,9.4,2.9a10.3,10.3,0,0,1,.1,15c-2.2,1.9-5.4,2.8-9.5,2.8h-61.1c-5.5,0-9.5-1.2-11.9-3.6s-3.6-6.4-3.6-11.9V54.8c0-5.1,1.2-9,3.5-11.5a11.4,11.4,0,0,1,9-3.9,12.2,12.2,0,0,1,9.3,3.8C1409.4,45.8,1410.6,49.6,1410.6,54.8Z"/><path d="M1542.7,41.6h32.9a93.7,93.7,0,0,1,22.1,2.3,40.7,40.7,0,0,1,16.7,9q19.5,16.7,19.5,50.8a93.2,93.2,0,0,1-2,20.5,60,60,0,0,1-6,16.7,51.8,51.8,0,0,1-10.5,13.4,41.8,41.8,0,0,1-11,7.2,47.6,47.6,0,0,1-12.8,3.8,90.6,90.6,0,0,1-15.4,1.1h-33c-4.6,0-8.1-.7-10.4-2.1a9.5,9.5,0,0,1-4.6-5.8,38.7,38.7,0,0,1-1-9.9V57.1c0-5.5,1.2-9.4,3.6-11.9S1537.2,41.6,1542.7,41.6Zm9.8,20v84.7h19.1q6.3,0,9.9-.3a29.2,29.2,0,0,0,7.4-1.7,20.9,20.9,0,0,0,6.7-3.8c8.4-7.2,12.7-19.5,12.7-37,0-12.3-1.9-21.6-5.6-27.7s-8.3-10-13.8-11.7-12-2.5-19.7-2.5Z"/><path d="M516,157.2c-1.2-2.9-19.5-46.5-66-82.2h0C260-81.2,0,55.1,0,55.1L75.3,94.3l17.6,13.2c91.4,69,197.3,85.8,278.9,85.8,74.8,0,129.3-14.1,133.9-15.4l16.9-4.5ZM305.2,140.4A36.4,36.4,0,1,1,341.6,104,36.4,36.4,0,0,1,305.2,140.4ZM131.4,96.9A389.1,389.1,0,0,1,253.2,61.5a67,67,0,0,0,2,87.3C213.7,139.1,171.2,122.8,131.4,96.9ZM340.7,161a67.3,67.3,0,0,0,31.7-57,66.5,66.5,0,0,0-12.1-38.3,190.9,190.9,0,0,1,118.4,86.6A591.6,591.6,0,0,1,340.7,161Z"/></svg>