<svg xmlns="http://www.w3.org/2000/svg" viewBox="0 0 564.2 127.8"><path d="M564.2 112.2a12.9 12.9 0 01-4.3 9.9 16.6 16.6 0 01-11.5 3.7h-56.6c-6.2 0-10.9-1.6-13.9-4.6s-4.5-7.7-4.5-13.8V18.3c0-5.8 1.4-10.3 4.3-13.4A14.4 14.4 0 01489.1 0a15.2 15.2 0 0111.5 4.8c2.9 3.1 4.3 7.6 4.3 13.5v80.1h43.5c4.9 0 8.7 1.3 11.5 3.9a13.2 13.2 0 014.3 9.9zM457 18.3v55.6a85 85 0 01-2.9 23.8 39.1 39.1 0 01-11.1 17.8 43.2 43.2 0 01-16.2 9.4 68.3 68.3 0 01-20.8 2.9 85.5 85.5 0 01-24.1-3.1 40.8 40.8 0 01-17.4-9.9 40.8 40.8 0 01-10-17.2 83.3 83.3 0 01-3-23.7V18.3c0-5.8 1.4-10.3 4.3-13.4A14.4 14.4 0 01367.2 0c4.8 0 8.7 1.6 11.6 4.9s4.3 7.6 4.3 13.4v56.9c0 6 .6 11 1.9 14.9a15 15 0 006.1 8c3 2 7.5 3 13.3 3 7.8 0 13.2-2 16.2-5.8s4.8-10.7 4.8-19.6V18.3c0-5.8 1.4-10.3 4.2-13.4A14.6 14.6 0 01441.1 0a15.2 15.2 0 0111.5 4.8 17.8 17.8 0 013.3 5.7 26.2 26.2 0 011.1 7.8zM213.4 112.5a12.8 12.8 0 01-4.1 9.7 16 16 0 01-11.1 3.6h-63.7c-6.2 0-10.8-1.5-13.9-4.6s-4.5-7.7-4.5-13.8v-87a22.9 22.9 0 011.9-10 13.1 13.1 0 016.7-6.6 23.8 23.8 0 019.8-1.8h61.9c4.8 0 8.5 1.2 11.1 3.5a12.6 12.6 0 014 9.5 12.7 12.7 0 01-4 9.6 16.2 16.2 0 01-11.1 3.5h-48.7v20.4h44.5c4.6 0 8.2 1.1 10.8 3.4a12.3 12.3 0 013.9 9.4 12.5 12.5 0 01-3.8 9.3c-2.5 2.4-6.2 3.6-10.9 3.6h-44.5v24.9h50.5q7.1 0 11.1 3.6a12.7 12.7 0 014.1 9.8zM101.6 104.7a116.1 116.1 0 00-7.2-13.8 112.5 112.5 0 00-10.6-14.3 59.2 59.2 0 00-5.6-5.6 38.2 38.2 0 0015.7-9.7 32.8 32.8 0 008.4-23.5 37.5 37.5 0 00-2.4-13.4 34.6 34.6 0 00-7.2-11.3 34.5 34.5 0 00-10.9-7.4 38.2 38.2 0 00-11.3-3 113.5 113.5 0 00-14-.7H18.4C12.3 2 7.6 3.5 4.6 6.5S0 14.2 0 20.4v89c0 5.7 1.4 10.1 4 13.3a15.1 15.1 0 0011.8 5.1 14.8 14.8 0 0011.4-4.8c2.9-3.1 4.3-7.7 4.3-13.6V76.3h4.2a23.8 23.8 0 018.8 1.4 17 17 0 016.6 5 86.2 86.2 0 018.6 12.6l9.4 15.6c2.4 3.9 4.1 6.7 5.4 8.5a20.7 20.7 0 005.6 5.8 15.6 15.6 0 009 2.6 16.5 16.5 0 007.7-1.8 14.5 14.5 0 005.5-4.9 12.3 12.3 0 002.1-6.8c0-1.4-.3-3.7-2.8-9.6zM70.5 39.3c0 3.1-.7 5.5-2.1 7.1s-3.7 2.9-6.7 3.7a59.9 59.9 0 01-13.2 1.3h-17V27.7h17.6c9.8 0 13.4.9 14.6 1.4a10.5 10.5 0 015 4 10.8 10.8 0 011.8 6.2zM267.4 123.1h-22.2a28.4 28.4 0 01-8.4-1 15.4 15.4 0 01-6.5-4.4 30.1 30.1 0 01-4.6-6.7 92.5 92.5 0 01-8.7-21.1 86 86 0 01-2.7-22.2 72.6 72.6 0 014.4-25.7 54.9 54.9 0 0112.8-20.2A58.5 58.5 0 01251.9 9a75.6 75.6 0 0126.3-4.4 78.1 78.1 0 0126.1 4.3 55.3 55.3 0 0120.5 12.8 57.3 57.3 0 0112.9 20.4 77.8 77.8 0 014.4 26.9 67.7 67.7 0 01-3.4 22 48.9 48.9 0 01-8.6 15.9 39 39 0 01-11.2 9.4 24.3 24.3 0 01-11.3 3.3 14.2 14.2 0 01-10.5-4.6 14.8 14.8 0 01-4.2-10.6 15.7 15.7 0 011.6-6.7 15.4 15.4 0 014.5-5.3l.3-.2a99.3 99.3 0 009.8-6.9 19.7 19.7 0 004.8-6.8 27.2 27.2 0 002-11.3 31.3 31.3 0 00-2.5-12.9 27.3 27.3 0 00-7-9.5 32.4 32.4 0 00-11.7-6.1 52.7 52.7 0 00-15.9-2.2c-12.5 0-22.2 2.8-28.7 8.3s-9.6 13.1-9.6 23.1a49.5 49.5 0 002 14.1 65.7 65.7 0 004.7 11.6h12.2V79.5c0-5.2.9-9.1 2.6-12s4.3-5.3 10.2-5.3a12.4 12.4 0 019.4 4.1 15.1 15.1 0 013.5 10.3v26.6a35.8 35.8 0 01-1 9.3 13 13 0 01-5.4 7.8 19.3 19.3 0 01-11.3 2.8z"/></svg>